<svg width="107" height="110" viewBox="0 0 107 110" fill="none" xmlns="http://www.w3.org/2000/svg">
<g id="&#208;&#186;&#209;&#128;&#209;&#131;&#208;&#179; &#208;&#177;&#208;&#181;&#208;&#183;&#208;&#190;&#208;&#191;&#208;&#176;&#209;&#129;&#208;&#189;&#208;&#190;&#209;&#129;&#209;&#130;&#209;&#140;">
<ellipse id="Ellipse 89" cx="53.5" cy="55.1046" rx="53.5" ry="54.5" fill="#FED6BC"/>
<path id="Vector" d="M83.9688 23.9999H21.4688C20.0183 23.9999 18.6273 24.547 17.6018 25.521C16.5762 26.495 16 27.8159 16 29.1933V50.9947C16 83.7283 45.1719 94.59 51.0195 96.4337C52.1213 96.7898 53.3162 96.7898 54.418 96.4337C60.2773 94.5789 89.4375 83.7283 89.4375 50.9947V29.1933C89.4375 27.8159 88.8613 26.495 87.8357 25.521C86.8102 24.547 85.4192 23.9999 83.9688 23.9999ZM84.75 51.0021C84.75 80.679 58.25 90.5428 52.9375 92.2159C52.7968 92.2677 52.6407 92.2677 52.5 92.2159C47.1875 90.5428 20.6875 80.679 20.6875 51.0021V29.1933C20.6875 28.9966 20.7698 28.8078 20.9163 28.6687C21.0628 28.5296 21.2615 28.4514 21.4688 28.4514H83.9688C84.1759 28.4514 84.3747 28.5296 84.5212 28.6687C84.6677 28.8078 84.75 28.9966 84.75 29.1933V51.0021ZM70 45.4377C70.4389 45.855 70.6854 46.4207 70.6854 47.0106C70.6854 47.6004 70.4389 48.1661 70 48.5835L48.125 69.3573C47.6855 69.7741 47.0898 70.0082 46.4688 70.0082C45.8477 70.0082 45.252 69.7741 44.8125 69.3573L35.4375 60.4542C35.0235 60.0323 34.7981 59.4742 34.8088 58.8976C34.8195 58.321 35.0655 57.7708 35.4949 57.363C35.9243 56.9552 36.5037 56.7216 37.1109 56.7114C37.7181 56.7013 38.3057 56.9153 38.75 57.3085L46.4688 64.6238L66.6875 45.4266C67.127 45.0098 67.7227 44.7756 68.3438 44.7756C68.9648 44.7756 69.5605 45.0098 70 45.4266V45.4377Z" fill="black"/>
</g>
</svg>
